<?xml version="1.0" encoding="UTF-8" standalone="no"?>
<!-- Created with Inkscape (http://www.inkscape.org/) -->

<svg
   xmlns:dc="http://purl.org/dc/elements/1.1/"
   xmlns:cc="http://creativecommons.org/ns#"
   xmlns:rdf="http://www.w3.org/1999/02/22-rdf-syntax-ns#"
   xmlns:svg="http://www.w3.org/2000/svg"
   xmlns="http://www.w3.org/2000/svg"
   xmlns:sodipodi="http://sodipodi.sourceforge.net/DTD/sodipodi-0.dtd"
   xmlns:inkscape="http://www.inkscape.org/namespaces/inkscape"
   id="svg4136"
   version="1.1"
   inkscape:version="0.91 r13725"
   xml:space="preserve"
   width="822.65002"
   height="84.349998"
   viewBox="0 0 822.65002 84.349998"
   sodipodi:docname="Geochron_en.svg"
   style="shape-rendering:crispEdges"><metadata
     id="metadata4142"><rdf:RDF><cc:Work
         rdf:about=""><dc:format>image/svg+xml</dc:format><dc:type
           rdf:resource="http://purl.org/dc/dcmitype/StillImage" /><dc:title></dc:title></cc:Work></rdf:RDF></metadata><defs
     id="defs4140"><clipPath
       clipPathUnits="userSpaceOnUse"
       id="clipPath4152"><path
         d="m 18,306.12 756,0 0,89.88 -756,0 0,-89.88 z"
         id="path4154"
         inkscape:connector-curvature="0"
         style="clip-rule:evenodd" /></clipPath><clipPath
       clipPathUnits="userSpaceOnUse"
       id="clipPath4164"><path
         d="m 18,216.24 756,0 0,89.88 -756,0 0,-89.88 z"
         id="path4166"
         inkscape:connector-curvature="0"
         style="clip-rule:evenodd" /></clipPath></defs><sodipodi:namedview
     pagecolor="#ffffff"
     bordercolor="#666666"
     borderopacity="1"
     objecttolerance="10"
     gridtolerance="10"
     guidetolerance="10"
     inkscape:pageopacity="0"
     inkscape:pageshadow="2"
     inkscape:window-width="1467"
     inkscape:window-height="906"
     id="namedview4138"
     showgrid="false"
     inkscape:zoom="0.77262796"
     inkscape:cx="412.00809"
     inkscape:cy="-15.23164"
     inkscape:window-x="125"
     inkscape:window-y="125"
     inkscape:window-maximized="1"
     inkscape:current-layer="g4144"
     showborder="false"
     fit-margin-top="0"
     fit-margin-left="0"
     fit-margin-right="0"
     fit-margin-bottom="0" /><g
     id="g4144"
     inkscape:groupmode="layer"
     inkscape:label="Geochron_en"
     transform="matrix(1.25,0,0,-1.25,-83.825,432.625)"><g
       id="g4242"
       style="fill:#005386;fill-opacity:1;stroke:#005386;stroke-opacity:1"><path
         inkscape:connector-curvature="0"
         id="path4178"
         style="fill:#005386;fill-opacity:1;fill-rule:nonzero;stroke:#005386;stroke-opacity:1"
         d="m 67.56,279.6 14.28,0 0,-0.48 -14.28,0 0,0.48 z m 14.28,66 14.28,0 0,-66.48 -14.28,0 0,66.48 z m 14.28,-27.24 14.28,0 0,-39.24 -14.28,0 0,39.24 z m 14.28,-28.32 14.28,0 0,-10.92 -14.28,0 0,10.92 z" /><path
         inkscape:connector-curvature="0"
         id="path4182"
         style="fill:#005386;fill-opacity:1;fill-rule:nonzero;stroke:#005386;stroke-opacity:1"
         d="m 124.68,298.32 14.28,0 0,-19.2 -14.28,0 0,19.2 z m 14.28,-6.6 14.28,0 0,-12.6 -14.28,0 0,12.6 z m 14.28,-6.48 14.28,0 0,-6.12 -14.28,0 0,6.12 z m 14.28,-2.4 14.28,0 0,-3.72 -14.28,0 0,3.72 z" /><path
         inkscape:connector-curvature="0"
         id="path4186"
         style="fill:#005386;fill-opacity:1;fill-rule:nonzero;stroke:#005386;stroke-opacity:1"
         d="m 181.8,280.8 14.28,0 0,-1.68 -14.28,0 0,1.68 z m 14.28,0.96 14.28,0 0,-2.64 -14.28,0 0,2.64 z m 14.28,7.2 14.28,0 0,-9.84 -14.28,0 0,9.84 z m 14.28,1.68 14.28,0 0,-11.52 -14.28,0 0,11.52 z" /><path
         inkscape:connector-curvature="0"
         id="path4190"
         style="fill:#005386;fill-opacity:1;fill-rule:nonzero;stroke:#005386;stroke-opacity:1"
         d="m 238.92,285.96 14.28,0 0,-6.84 -14.28,0 0,6.84 z m 14.28,-2.4 14.28,0 0,-4.44 -14.28,0 0,4.44 z m 14.28,-0.12 14.4,0 0,-4.32 -14.4,0 0,4.32 z m 14.4,0.12 14.28,0 0,-4.44 -14.28,0 0,4.44 z" /><path
         inkscape:connector-curvature="0"
         id="path4194"
         style="fill:#005386;fill-opacity:1;fill-rule:nonzero;stroke:#005386;stroke-opacity:1"
         d="m 296.16,282.96 14.28,0 0,-3.84 -14.28,0 0,3.84 z m 14.28,4.92 14.28,0 0,-8.76 -14.28,0 0,8.76 z m 14.28,5.16 14.28,0 0,-13.92 -14.28,0 0,13.92 z m 14.28,13.56 14.28,0 0,-27.48 -14.28,0 0,27.48 z" /><path
         inkscape:connector-curvature="0"
         id="path4198"
         style="fill:#005386;fill-opacity:1;fill-rule:nonzero;stroke:#005386;stroke-opacity:1"
         d="m 353.28,287.76 14.28,0 0,-8.64 -14.28,0 0,8.64 z m 14.28,-4.2 14.28,0 0,-4.44 -14.28,0 0,4.44 z m 14.28,-1.56 14.28,0 0,-2.88 -14.28,0 0,2.88 z m 14.28,0.36 14.28,0 0,-3.24 -14.28,0 0,3.24 z" /><path
         inkscape:connector-curvature="0"
         id="path4202"
         style="fill:#005386;fill-opacity:1;fill-rule:nonzero;stroke:#005386;stroke-opacity:1"
         d="m 410.4,284.16 14.28,0 0,-5.04 -14.28,0 0,5.04 z m 14.28,1.44 14.28,0 0,-6.48 -14.28,0 0,6.48 z m 14.28,2.52 14.28,0 0,-9 -14.28,0 0,9 z m 14.28,18.96 14.28,0 0,-27.96 -14.28,0 0,27.96 z" /><path
         inkscape:connector-curvature="0"
         id="path4206"
         style="fill:#005386;fill-opacity:1;fill-rule:nonzero;stroke:#005386;stroke-opacity:1"
         d="m 467.52,301.2 14.28,0 0,-22.08 -14.28,0 0,22.08 z m 14.28,-16.92 14.28,0 0,-5.16 -14.28,0 0,5.16 z m 14.28,-2.28 14.28,0 0,-2.88 -14.28,0 0,2.88 z m 14.28,-1.2 14.28,0 0,-1.68 -14.28,0 0,1.68 z m 14.28,-0.72 14.4,0 0,-0.96 -14.4,0 0,0.96 z m 14.4,-0.12 14.28,0 0,-0.84 -14.28,0 0,0.84 z m 14.28,-0.36 171.36,0 0,-0.48 -171.36,0 0,0.48 z" /></g></g></svg>